<?xml version="1.0" encoding="utf-8"?>
<!-- Generator: Adobe Illustrator 21.1.0, SVG Export Plug-In . SVG Version: 6.00 Build 0)  -->
<svg version="1.1" id="Layer_1" xmlns="http://www.w3.org/2000/svg" xmlns:xlink="http://www.w3.org/1999/xlink" x="0px" y="0px"
	 viewBox="0 0 136 114" style="enable-background:new 0 0 136 114;" xml:space="preserve">
<g>
	<g>
		<path style="fill:#FBAA19;" d="M13.1,44.4V25.3h2.7v8.5H25v-8.5h2.7v19.2H25v-8.7h-9.3v8.7H13.1z"/>
		<path style="fill:#FBAA19;" d="M34.3,43.8c-1.2-0.6-1.9-1.4-2.4-2.3c-0.4-1-0.6-2.2-0.6-3.5v-6c0-2.7,0.8-4.6,2.3-5.7
			c1.3-0.8,3.1-1.3,5.6-1.3c4.3,0,6.8,1.6,7.5,4.8c0.1,0.7,0.2,1.4,0.2,2.3v5.7c0,2.7-0.8,4.5-2.3,5.6c-1.2,0.9-3,1.3-5.2,1.3
			C37.2,44.7,35.5,44.4,34.3,43.8z M39.2,42.6c1.7,0,3-0.3,3.8-0.8c0.8-0.6,1.2-1.7,1.2-3.3v-6.9c0-1.7-0.4-2.8-1.2-3.4
			c-0.8-0.6-2.1-0.9-3.8-0.9c-2.7,0-4.3,0.7-4.9,2.2c-0.2,0.6-0.3,1.3-0.3,2.1v6.9c0,1.7,0.4,2.8,1.3,3.3S37.5,42.6,39.2,42.6z"/>
		<path style="fill:#FBAA19;" d="M50.6,44.4V25.3h2.7v17.1h8.6v2.1H50.6z"/>
		<path style="fill:#FBAA19;" d="M64.2,44.4V25.3h7.6c3.7,0,6,1.3,6.9,3.9c0.3,0.8,0.4,1.6,0.4,2.6V38c0,2.1-0.6,3.7-1.8,4.8
			c-1.2,1.1-3,1.6-5.4,1.6H64.2z M66.8,42.4h4.7c1.9,0,3.2-0.4,3.9-1.1c0.6-0.7,1-1.7,1-3.1v-6.7c0-2-0.7-3.2-2-3.8
			c-0.7-0.3-1.7-0.5-2.9-0.5h-4.7V42.4z"/>
		<path style="fill:#FBAA19;" d="M87.9,44.4V25.3h2.5L96.8,36l6.5-10.7h2.4v19.2h-2.5V29.6l-5.4,8.8h-2l-5.4-8.7v14.8H87.9z"/>
		<path style="fill:#FBAA19;" d="M114.3,44.4v-7.5l-6.8-11.6h2.8l5.3,9.3l5.3-9.3h2.7L117,36.9v7.5H114.3z"/>
		<path style="fill:#FBAA19;" d="M17.5,92V63.4h11c3.9,0,6.6,0.6,8.1,1.8c0.7,0.6,1.3,1.4,1.6,2.3c0.3,0.9,0.5,2.1,0.5,3.5
			c0,1.5-0.3,2.6-0.8,3.5c-0.5,0.9-1.5,1.5-2.9,1.8c1.9,0.3,3.2,1,3.9,2.2c0.7,1.2,1,2.8,1,4.7c0,0.1,0,0.2,0,0.3
			c0,2.8-0.8,4.9-2.3,6.3c-1.5,1.4-4.1,2.1-7.6,2.1H17.5z M23.2,74.9h5.9c1.8,0,2.9-0.5,3.3-1.5c0.2-0.5,0.3-1.4,0.3-2.4
			c0-1.1-0.1-1.9-0.4-2.4c-0.2-0.5-0.7-0.8-1.3-1c-0.6-0.2-1.6-0.3-3-0.3h-4.9V74.9z M23.2,88h5.6c1.2,0,2.1-0.1,2.7-0.2
			c0.7-0.1,1.2-0.4,1.6-0.7c0.4-0.4,0.7-0.9,0.8-1.4c0.1-0.6,0.2-1.3,0.2-2.1c0-0.8,0-1.5-0.1-1.9c-0.1-1.1-0.5-1.9-1.2-2.4
			c-0.7-0.5-1.8-0.8-3.4-0.8h-6.2V88z"/>
		<path style="fill:#FBAA19;" d="M45.7,92V63.4h18.7v4.3h-13v7.6h11.5v4.1H51.4v8.2h13.2V92H45.7z"/>
		<path style="fill:#FBAA19;" d="M70.7,92V63.4h18.7v4.3h-13v7.6H88v4.1H76.5v8.2h13.2V92H70.7z"/>
		<path style="fill:#FBAA19;" d="M95.8,92V63.4h12.3c3.7,0,6.2,0.7,7.5,2.2c1.3,1.5,2,3.5,2,6.1c0,2.6-0.4,4.4-1.1,5.6
			c-0.7,1.2-1.8,2-3.1,2.5L119,92h-6l-5-11.3h-6.5V92H95.8z M101.5,76.6h7.1c1.4,0,2.3-0.4,2.8-1.2c0.5-0.8,0.8-1.9,0.8-3.5
			c0-3-1.1-4.5-3.3-4.5h-7.3V76.6z"/>
	</g>
	<path style="fill:none;stroke:#FBAA19;stroke-width:3;stroke-miterlimit:10;" d="M67.2,64"/>
	<g>
		<polygon style="fill:#FBAA19;" points="4.5,67.2 1.5,67.2 1.5,1.5 67.2,1.5 67.2,4.5 4.5,4.5 		"/>
	</g>
	<path style="fill:none;stroke:#FBAA19;stroke-width:3;stroke-miterlimit:10;" d="M67.7,64.6"/>
	<g>
		<polygon style="fill:#FBAA19;" points="133.4,112.5 67.7,112.5 67.7,109.5 130.4,109.5 130.4,46.8 133.4,46.8 		"/>
	</g>
</g>
</svg>
