<?xml version="1.0" encoding="utf-8"?>
<!-- Generator: Adobe Illustrator 21.1.0, SVG Export Plug-In . SVG Version: 6.00 Build 0)  -->
<svg version="1.1" id="Layer_1" xmlns="http://www.w3.org/2000/svg" xmlns:xlink="http://www.w3.org/1999/xlink" x="0px" y="0px"
	 viewBox="0 0 50 56" style="enable-background:new 0 0 50 56;" xml:space="preserve">
<path style="fill:#FBAA19;" d="M44.8,44.7L33.2,33.1c1.6-2.4,2.5-5.3,2.5-8.4c0-8.7-7-15.7-15.7-15.7c-8.7,0-15.7,7-15.7,15.7
	c0,8.7,7,15.7,15.7,15.7c3.8,0,7.2-1.3,9.9-3.5l11.4,11.4L44.8,44.7z M19.9,35.4c-5.9,0-10.7-4.8-10.7-10.7C9.2,18.8,14,14,19.9,14
	s10.7,4.8,10.7,10.7C30.6,30.6,25.8,35.4,19.9,35.4z"/>
</svg>
